<?xml version="1.0" encoding="iso-8859-1"?>
<!-- Generator: Adobe Illustrator 19.0.0, SVG Export Plug-In . SVG Version: 6.00 Build 0)  -->
<svg version="1.1" id="Capa_1" xmlns="http://www.w3.org/2000/svg" xmlns:xlink="http://www.w3.org/1999/xlink" x="0px" y="0px"
	 viewBox="0 0 512 512" style="enable-background:new 0 0 512 512;" xml:space="preserve">
<rect x="392" y="31" style="fill:#FBD141;" width="90" height="100"/>
<rect x="392" y="161" style="fill:#FF3CAD;" width="90" height="100"/>
<rect x="392" y="291" style="fill:#163F69;" width="90" height="100"/>
<polygon style="fill:#0F9AF0;" points="256,0 216,437 422,422 422,0 "/>
<polygon style="fill:#13BDF7;" points="256,0 105,0 65,437 256,437 "/>
<path style="fill:#0A77E8;" d="M75,0C50.187,0,30,20.187,30,45v422l75-30V0H75z"/>
<rect x="226" y="437" style="fill:#E4E4E4;" width="166" height="60"/>
<path style="fill:#FFFFFF;" d="M75,437c-16.569,0-30,13.431-30,30s13.431,30,30,30h181v-60H75z"/>
<g>
	<polygon style="fill:#0A77E8;" points="422,512 422,482 256,482 246,497 256,512 	"/>
	<polygon style="fill:#0A77E8;" points="422,452 422,422 256,422 246,437 256,452 	"/>
	<rect x="256" y="422" style="fill:#0A77E8;" width="166" height="30"/>
</g>
<path style="fill:#0F9AF0;" d="M60,467c0-8.271,6.729-15,15-15h181v-30H75c-24.813,0-45,20.187-45,45s20.187,45,45,45h181v-30H75
	C66.729,482,60,475.271,60,467z"/>
<g>
</g>
<g>
</g>
<g>
</g>
<g>
</g>
<g>
</g>
<g>
</g>
<g>
</g>
<g>
</g>
<g>
</g>
<g>
</g>
<g>
</g>
<g>
</g>
<g>
</g>
<g>
</g>
<g>
</g>
</svg>
